<svg width="370" height="293" viewBox="0 0 370 293" fill="none" xmlns="http://www.w3.org/2000/svg">
<path d="M131.34 104.818L118.95 110.364L116.472 119.322L114.82 127H102.43L98.3001 111.217L83.845 105.671L70.2158 113.35L61.5427 104.818L69.3898 90.7413L64.8467 77.9441L49.1526 72.3986V59.6014L64.8467 54.9091L66.4988 48.5105L70.2158 41.6853L62.7817 26.3287L71.4548 17.7972L85.497 26.3287L98.3001 20.7832L103.256 5H114.82L119.776 21.6364L130.927 26.7552L144.97 19.0769L153.643 27.6084L146.209 41.6853L151.578 54.9091L166.859 59.6014V72.3986L150.752 77.0909L146.209 89.035L153.643 103.965L144.97 112.497L138.155 108.657L131.34 104.818Z" stroke="white" stroke-width="9"/>
<path d="M108.551 47.6573C129.942 48.5101 131.588 81.7676 108.551 84.3259C81.3998 83.8995 85.5135 46.7389 108.551 47.6573Z" stroke="white" stroke-width="9"/>
<path d="M134.163 271.508C138.265 271.665 140.517 274.484 140.608 278.184C140.653 280.034 140.081 281.734 139.074 282.967C138.194 284.043 136.704 285.115 134.095 285.488C130.582 285.34 128.843 284.162 127.976 283.201C126.984 282.102 126.402 280.474 126.513 278.541C126.744 274.542 129.545 271.33 134.163 271.508Z" stroke="white" stroke-width="15"/>
<path d="M187.638 271.507C191.249 271.651 193.545 274.247 193.637 278.178C193.683 280.093 193.107 281.831 192.133 283.064C191.3 284.119 189.935 285.126 187.566 285.486C184.335 285.335 182.752 284.22 181.946 283.296C180.992 282.202 180.401 280.534 180.513 278.526C180.75 274.289 183.564 271.345 187.638 271.507Z" stroke="white" stroke-width="15"/>
<path d="M237.163 271.508C241.265 271.665 243.517 274.484 243.608 278.184C243.653 280.034 243.081 281.734 242.074 282.967C241.194 284.043 239.704 285.115 237.095 285.488C233.582 285.34 231.843 284.162 230.976 283.201C229.984 282.102 229.402 280.474 229.513 278.541C229.744 274.542 232.545 271.33 237.163 271.508Z" stroke="white" stroke-width="15"/>
<path d="M284.359 104.818L271.969 110.364L269.491 119.322L267.839 127H255.448L251.318 111.217L236.863 105.671L223.234 113.35L214.561 104.818L222.408 90.7413L217.865 77.9441L202.171 72.3986V59.6014L217.865 54.9091L219.517 48.5105L223.234 41.6853L215.8 26.3287L224.473 17.7972L238.515 26.3287L251.318 20.7832L256.274 5H267.839L272.795 21.6364L283.946 26.7552L297.988 19.0769L306.661 27.6084L299.227 41.6853L304.596 54.9091L319.877 59.6014V72.3986L303.77 77.0909L299.227 89.035L306.661 103.965L297.988 112.497L291.173 108.657L284.359 104.818Z" stroke="white" stroke-width="9"/>
<path d="M261.569 47.6573C282.96 48.5101 284.606 81.7676 261.569 84.3259C234.418 83.8995 238.532 46.7389 261.569 47.6573Z" stroke="white" stroke-width="9"/>
<path d="M238.14 166.996L239.274 166.346L238.14 165.695L185.257 135.349L184.883 135.135L184.51 135.349L131.627 165.695L130.493 166.346L131.627 166.996L184.51 197.342L184.883 197.556L185.257 197.342L238.14 166.996ZM224.572 186.851L223.436 187.503L224.573 188.152L226.037 188.989L184.884 212.61L143.74 188.989L145.204 188.152L146.342 187.503L145.206 186.851L140.09 183.915L139.717 183.701L139.344 183.915L131.627 188.337L130.492 188.987L131.627 189.638L184.51 219.984L184.883 220.198L185.257 219.984L238.14 189.638L239.274 188.988L238.14 188.337L230.434 183.915L230.061 183.701L229.688 183.915L224.572 186.851ZM224.573 209.504L223.434 210.155L224.573 210.807L226.037 211.643L184.883 235.264L143.741 211.655L145.204 210.819L146.342 210.169L145.206 209.517L140.09 206.582L139.717 206.368L139.344 206.582L131.627 211.003L130.492 211.654L131.627 212.305L184.51 242.651L184.883 242.865L185.257 242.651L238.14 212.305L239.274 211.654L238.14 211.004L230.434 206.582L230.062 206.368L229.689 206.581L224.573 209.504ZM184.883 189.968L143.738 166.346L184.883 142.736L226.029 166.346L184.883 189.968Z" fill="white" stroke="white" stroke-width="1.5"/>
<path d="M332.732 94.5104L332.732 94.51L332.733 94.5096C333.197 94.2979 333.813 94.238 334.493 94.2519C335.196 94.2662 336.063 94.3633 337.091 94.5377L337.092 94.5379C343.987 95.7204 348.978 99.8063 351.186 106.118L351.187 106.119C352.221 109.084 352.37 110.706 352.56 119.135L352.56 119.136C352.656 123.502 352.827 128.183 352.939 129.51C353.498 135.966 354.61 140.225 356.538 142.948C358.421 145.607 361.159 146.9 365.286 147.222L365.288 147.222C366.086 147.285 366.649 147.348 367.064 147.465C367.545 147.601 367.843 147.812 368.111 148.116C368.569 148.632 368.753 149.322 368.75 149.955C368.747 150.59 368.556 151.27 368.134 151.792L368.134 151.792C368.018 151.936 367.88 152.091 367.698 152.224C367.509 152.363 367.304 152.456 367.074 152.523C366.66 152.643 366.087 152.694 365.267 152.757C362.943 152.946 361.145 153.407 359.7 154.178C358.265 154.944 357.134 156.039 356.176 157.566L356.175 157.568L356.173 157.569C354.966 159.468 354.056 162.171 353.453 165.914C352.85 169.652 352.561 174.378 352.561 180.29C352.561 188.106 352.069 191.873 350.517 195.379L350.517 195.38C348.065 200.894 343.407 204.35 337.093 205.442L337.09 205.442L337.087 205.443C335.712 205.668 334.722 205.784 333.973 205.741C333.168 205.695 332.592 205.462 332.092 204.989L332.091 204.988L332.089 204.987C331.068 204.012 330.959 202.347 331.87 201.247C331.983 201.101 332.12 200.948 332.309 200.814C332.505 200.675 332.72 200.583 332.959 200.514C333.402 200.387 334.038 200.312 334.985 200.218C339.933 199.677 343.193 197.791 345.193 194.474L345.193 194.472C346.934 191.596 347.445 189.203 347.445 183.106C347.445 177.785 347.749 170.877 348.135 167.527C348.712 162.311 349.968 157.922 351.83 154.768C352.359 153.862 353.122 152.874 353.912 152.018C354.681 151.184 355.522 150.426 356.244 149.991C353.886 148.57 351.498 145.235 350.214 141.809L350.213 141.808C348.356 136.84 347.73 131.374 347.521 119.489L347.521 119.488C347.387 111.642 347.152 109.703 346.17 107.342L346.169 107.342C344.297 102.831 340.254 100.116 334.632 99.7443L334.627 99.7439L334.622 99.7436C333.839 99.6818 333.281 99.6351 332.881 99.515C332.654 99.4467 332.451 99.3491 332.266 99.2015C332.092 99.0633 331.963 98.904 331.855 98.7593C331.326 98.0666 331.196 97.1809 331.342 96.4151C331.488 95.6538 331.938 94.8753 332.732 94.5104Z" fill="white" stroke="white" stroke-width="15"/>
<path d="M37.2685 94.5104L37.2676 94.51L37.2668 94.5096C36.8034 94.2979 36.1872 94.238 35.5073 94.2519C34.8044 94.2662 33.9366 94.3633 32.9089 94.5377L32.9076 94.5379C26.0133 95.7204 21.0216 99.8063 18.8135 106.118L18.8133 106.119C17.7792 109.084 17.6301 110.706 17.4396 119.135L17.4396 119.136C17.344 123.502 17.1733 128.183 17.0613 129.51C16.5022 135.966 15.3902 140.225 13.4618 142.948C11.5785 145.607 8.84087 146.9 4.71352 147.222L4.71223 147.222C3.91379 147.285 3.35097 147.348 2.93607 147.465C2.45475 147.601 2.15749 147.812 1.88856 148.116C1.43105 148.632 1.24689 149.322 1.25004 149.955C1.2532 150.59 1.44445 151.27 1.86589 151.792L1.86605 151.792C1.98231 151.936 2.12012 152.091 2.30233 152.224C2.49122 152.363 2.69555 152.456 2.92557 152.523C3.34009 152.643 3.91349 152.694 4.7326 152.757C7.05699 152.946 8.85469 153.407 10.2998 154.178C11.7354 154.944 12.866 156.039 13.8242 157.566L13.8254 157.568L13.8266 157.569C15.034 159.468 15.9439 162.171 16.5473 165.914C17.1497 169.652 17.4394 174.378 17.4394 180.29C17.4394 188.106 17.9309 191.873 19.4828 195.379L19.4833 195.38C21.9351 200.894 26.5925 204.35 32.9066 205.442L32.91 205.442L32.9134 205.443C34.2884 205.668 35.278 205.784 36.0275 205.741C36.8321 205.695 37.4082 205.462 37.9079 204.989L37.9093 204.988L37.9106 204.987C38.9318 204.012 39.0407 202.347 38.1303 201.247C38.0175 201.101 37.8802 200.948 37.6906 200.814C37.4948 200.675 37.28 200.583 37.0408 200.514C36.5981 200.387 35.9623 200.312 35.015 200.218C30.0675 199.677 26.8071 197.791 24.8073 194.474L24.8066 194.472C23.0659 191.596 22.5549 189.203 22.5549 183.106C22.5549 177.785 22.2505 170.877 21.8653 167.527C21.288 162.311 20.032 157.922 18.1702 154.768C17.6412 153.862 16.8778 152.874 16.0878 152.018C15.3187 151.184 14.4776 150.426 13.7557 149.991C16.1136 148.57 18.5024 145.235 19.7864 141.809L19.7866 141.808C21.6443 136.84 22.2695 131.374 22.4793 119.489L22.4793 119.488C22.6129 111.642 22.8476 109.703 23.8304 107.342L23.8307 107.342C25.7033 102.831 29.7457 100.116 35.3683 99.7443L35.3731 99.7439L35.3779 99.7436C36.1605 99.6818 36.7189 99.6351 37.1189 99.515C37.3462 99.4467 37.5486 99.3491 37.7341 99.2015C37.9078 99.0633 38.0374 98.904 38.1446 98.7593C38.6743 98.0666 38.8044 97.1809 38.6577 96.4151C38.5119 95.6538 38.0622 94.8753 37.2685 94.5104Z" fill="white" stroke="white" stroke-width="15"/>
</svg>
